<svg xmlns="http://www.w3.org/2000/svg" width="375" viewBox="0 0 375 375" height="375" version="1.0"><defs><clipPath id="a"><path d="M 101 134 L 166 134 L 166 210.316406 L 101 210.316406 Z M 101 134"/></clipPath><clipPath id="b"><path d="M 139 114 L 237 114 L 237 210.316406 L 139 210.316406 Z M 139 114"/></clipPath></defs><g clip-path="url(#a)"><path fill="#3DD6BA" d="M 161.261719 184.515625 L 147.9375 197.832031 C 143.355469 202.40625 137.347656 204.6875 131.332031 204.6875 C 125.320312 204.6875 119.308594 202.40625 114.730469 197.832031 C 105.578125 188.6875 105.578125 173.804688 114.730469 164.664062 L 134.640625 144.773438 C 134.628906 144.421875 134.621094 144.074219 134.621094 143.71875 C 134.621094 140.714844 135.007812 137.773438 135.753906 134.945312 L 110.367188 160.304688 C 98.804688 171.855469 98.804688 190.644531 110.367188 202.1875 C 116.144531 207.960938 123.742188 210.847656 131.332031 210.847656 C 138.925781 210.847656 146.515625 207.960938 152.296875 202.1875 L 165.625 188.875 Z M 161.261719 184.515625"/></g><g clip-path="url(#b)"><path fill="#3DD6BA" d="M 206.464844 210.851562 C 198.875 210.851562 191.28125 207.964844 185.5 202.191406 L 147.9375 164.664062 C 142.332031 159.066406 139.253906 151.632812 139.253906 143.71875 C 139.253906 135.808594 142.335938 128.371094 147.9375 122.777344 C 159.496094 111.226562 178.304688 111.226562 189.863281 122.777344 L 227.425781 160.300781 C 238.988281 171.851562 238.988281 190.640625 227.425781 202.183594 C 221.648438 207.960938 214.058594 210.851562 206.464844 210.851562 Z M 189.863281 197.832031 C 199.015625 206.972656 213.910156 206.972656 223.066406 197.832031 C 232.21875 188.6875 232.21875 173.804688 223.066406 164.664062 L 185.5 127.136719 C 176.347656 117.992188 161.449219 117.992188 152.296875 127.136719 C 147.863281 131.566406 145.421875 137.453125 145.421875 143.722656 C 145.421875 149.988281 147.863281 155.875 152.296875 160.308594 Z M 189.863281 197.832031"/></g><path fill="#3DD6BA" d="M 223.066406 122.78125 L 209.738281 136.09375 L 214.101562 140.449219 L 227.425781 127.136719 C 236.582031 117.992188 251.476562 117.992188 260.628906 127.136719 C 269.78125 136.28125 269.78125 151.160156 260.628906 160.304688 L 240.707031 180.207031 C 240.804688 183.515625 240.429688 186.832031 239.574219 190.050781 L 264.992188 164.664062 C 276.554688 153.113281 276.554688 134.324219 264.992188 122.78125 C 253.433594 111.230469 234.625 111.230469 223.066406 122.78125 Z M 223.066406 122.78125"/><g fill="#3DD6BA"><g><g><path d="M 12.21875 -8.046875 C 11.800781 -7.546875 11.195312 -7.144531 10.40625 -6.84375 C 9.613281 -6.539062 8.691406 -6.390625 7.640625 -6.390625 L 4.96875 -6.390625 L 4.96875 0 L 1.71875 0 L 1.71875 -16.046875 L 7.640625 -16.046875 C 9.492188 -16.046875 10.921875 -15.582031 11.921875 -14.65625 C 12.929688 -13.726562 13.4375 -12.632812 13.4375 -11.375 C 13.4375 -10.125 13.03125 -9.015625 12.21875 -8.046875 Z M 4.96875 -8.875 L 7.640625 -8.875 C 8.453125 -8.875 9.070312 -9.082031 9.5 -9.5 C 9.925781 -9.925781 10.140625 -10.5 10.140625 -11.21875 C 10.140625 -11.945312 9.925781 -12.519531 9.5 -12.9375 C 9.070312 -13.351562 8.453125 -13.5625 7.640625 -13.5625 L 4.96875 -13.5625 Z M 4.96875 -8.875" transform="translate(98.476 241.257)"/></g></g></g><g fill="#3DD6BA"><g><g><path d="M 11.875 -16.046875 L 15.109375 -16.046875 L 15.109375 0 L 11.875 0 L 11.875 -6.875 L 4.96875 -6.875 L 4.96875 0 L 1.71875 0 L 1.71875 -16.046875 L 4.96875 -16.046875 L 4.96875 -9.359375 L 11.875 -9.359375 Z M 11.875 -16.046875" transform="translate(112.156 241.257)"/></g></g></g><g fill="#3DD6BA"><g><g><path d="M 12.265625 0 L 11.21875 -3.015625 L 4.96875 -3.015625 L 3.9375 0 L 0.5 0 L 6.1875 -16.09375 L 10.03125 -16.09375 L 15.6875 0 Z M 5.8125 -5.5 L 10.390625 -5.5 L 8.09375 -12.1875 Z M 5.8125 -5.5" transform="translate(128.527 241.257)"/></g></g></g><g fill="#3DD6BA"><g><g><path d="M 4.96875 -6.390625 L 4.96875 0 L 1.71875 0 L 1.71875 -16.046875 L 7.640625 -16.046875 C 9.492188 -16.046875 10.921875 -15.582031 11.921875 -14.65625 C 12.929688 -13.726562 13.4375 -12.582031 13.4375 -11.21875 C 13.4375 -10.207031 13.128906 -9.265625 12.515625 -8.390625 C 11.898438 -7.515625 10.929688 -6.914062 9.609375 -6.59375 L 13.703125 0 L 9.859375 0 L 6.03125 -6.390625 Z M 4.96875 -13.5625 L 4.96875 -8.875 L 7.640625 -8.875 C 8.453125 -8.875 9.070312 -9.082031 9.5 -9.5 C 9.925781 -9.925781 10.140625 -10.5 10.140625 -11.21875 C 10.140625 -11.945312 9.925781 -12.519531 9.5 -12.9375 C 9.070312 -13.351562 8.453125 -13.5625 7.640625 -13.5625 Z M 4.96875 -13.5625" transform="translate(144.276 241.257)"/></g></g></g><g fill="#3DD6BA"><g><g><path d="M 19.234375 -16.046875 L 19.234375 0 L 16.015625 0 L 16.015625 -10.140625 L 11.640625 0 L 9.3125 0 L 4.96875 -10.09375 L 4.96875 0 L 1.71875 0 L 1.71875 -16.046875 L 5.34375 -16.046875 L 10.484375 -4.15625 L 15.640625 -16.046875 Z M 19.234375 -16.046875" transform="translate(158.738 241.257)"/></g></g></g><g fill="#3DD6BA"><g><g><path d="M 12.265625 0 L 11.21875 -3.015625 L 4.96875 -3.015625 L 3.9375 0 L 0.5 0 L 6.1875 -16.09375 L 10.03125 -16.09375 L 15.6875 0 Z M 5.8125 -5.5 L 10.390625 -5.5 L 8.09375 -12.1875 Z M 5.8125 -5.5" transform="translate(179.224 241.257)"/></g></g></g><g fill="#3DD6BA"><g><g><path d="M 3.1875 -2.1875 C 1.613281 -3.738281 0.828125 -5.703125 0.828125 -8.078125 C 0.828125 -10.453125 1.617188 -12.410156 3.203125 -13.953125 C 4.796875 -15.503906 6.738281 -16.28125 9.03125 -16.28125 C 10.78125 -16.28125 12.332031 -15.832031 13.6875 -14.9375 C 15.050781 -14.050781 16.023438 -12.804688 16.609375 -11.203125 L 12.71875 -11.203125 C 12 -12.609375 10.769531 -13.3125 9.03125 -13.3125 C 7.582031 -13.3125 6.398438 -12.832031 5.484375 -11.875 C 4.566406 -10.914062 4.109375 -9.644531 4.109375 -8.0625 C 4.109375 -6.476562 4.566406 -5.207031 5.484375 -4.25 C 6.398438 -3.289062 7.582031 -2.8125 9.03125 -2.8125 C 10.75 -2.8125 11.976562 -3.515625 12.71875 -4.921875 L 16.609375 -4.921875 C 16.023438 -3.304688 15.050781 -2.054688 13.6875 -1.171875 C 12.332031 -0.296875 10.78125 0.140625 9.03125 0.140625 C 6.71875 0.140625 4.769531 -0.632812 3.1875 -2.1875 Z M 3.1875 -2.1875" transform="translate(194.974 241.257)"/></g></g></g><g fill="#3DD6BA"><g><g><path d="M 9.015625 0 L 5.765625 0 L 5.765625 -5.515625 L 0.34375 -16.046875 L 3.984375 -16.046875 L 7.40625 -8.484375 L 10.8125 -16.046875 L 14.4375 -16.046875 L 9.015625 -5.515625 Z M 9.015625 0" transform="translate(212.195 241.257)"/></g></g></g><g fill="#3DD6BA"><g><g><path d="M 12.265625 0 L 11.21875 -3.015625 L 4.96875 -3.015625 L 3.9375 0 L 0.5 0 L 6.1875 -16.09375 L 10.03125 -16.09375 L 15.6875 0 Z M 5.8125 -5.5 L 10.390625 -5.5 L 8.09375 -12.1875 Z M 5.8125 -5.5" transform="translate(232.957 241.257)"/></g></g></g><g fill="#3DD6BA"><g><g><path d="M 12.21875 -8.046875 C 11.800781 -7.546875 11.195312 -7.144531 10.40625 -6.84375 C 9.613281 -6.539062 8.691406 -6.390625 7.640625 -6.390625 L 4.96875 -6.390625 L 4.96875 0 L 1.71875 0 L 1.71875 -16.046875 L 7.640625 -16.046875 C 9.492188 -16.046875 10.921875 -15.582031 11.921875 -14.65625 C 12.929688 -13.726562 13.4375 -12.632812 13.4375 -11.375 C 13.4375 -10.125 13.03125 -9.015625 12.21875 -8.046875 Z M 4.96875 -8.875 L 7.640625 -8.875 C 8.453125 -8.875 9.070312 -9.082031 9.5 -9.5 C 9.925781 -9.925781 10.140625 -10.5 10.140625 -11.21875 C 10.140625 -11.945312 9.925781 -12.519531 9.5 -12.9375 C 9.070312 -13.351562 8.453125 -13.5625 7.640625 -13.5625 L 4.96875 -13.5625 Z M 4.96875 -8.875" transform="translate(248.706 241.257)"/></g></g></g><g fill="#3DD6BA"><g><g><path d="M 12.21875 -8.046875 C 11.800781 -7.546875 11.195312 -7.144531 10.40625 -6.84375 C 9.613281 -6.539062 8.691406 -6.390625 7.640625 -6.390625 L 4.96875 -6.390625 L 4.96875 0 L 1.71875 0 L 1.71875 -16.046875 L 7.640625 -16.046875 C 9.492188 -16.046875 10.921875 -15.582031 11.921875 -14.65625 C 12.929688 -13.726562 13.4375 -12.632812 13.4375 -11.375 C 13.4375 -10.125 13.03125 -9.015625 12.21875 -8.046875 Z M 4.96875 -8.875 L 7.640625 -8.875 C 8.453125 -8.875 9.070312 -9.082031 9.5 -9.5 C 9.925781 -9.925781 10.140625 -10.5 10.140625 -11.21875 C 10.140625 -11.945312 9.925781 -12.519531 9.5 -12.9375 C 9.070312 -13.351562 8.453125 -13.5625 7.640625 -13.5625 L 4.96875 -13.5625 Z M 4.96875 -8.875" transform="translate(262.386 241.257)"/></g></g></g></svg>